<svg width="30" height="30" viewBox="0 0 30 30" fill="none" xmlns="http://www.w3.org/2000/svg">
<path d="M22.3 23.0867C24.8274 20.7279 25.9506 16.7966 25.2767 13.0337H15.2236V17.1897H20.9521C20.7275 18.5376 19.9412 19.6608 18.818 20.391L22.3 23.0867Z" fill="#4285F4"/>
<path d="M5.67676 19.7732C5.76879 19.9544 5.86582 20.1328 5.96785 20.3085C6.06996 20.4843 6.17691 20.6569 6.28871 20.8266C6.40059 20.9962 6.51707 21.1626 6.63832 21.3257C6.75957 21.4888 6.88527 21.6483 7.01559 21.8043C7.14582 21.9602 7.28035 22.1124 7.41926 22.2608C7.55809 22.4091 7.70105 22.5534 7.84809 22.6937C7.99512 22.834 8.14598 22.97 8.30066 23.1018C8.45535 23.2335 8.61363 23.3608 8.77559 23.4836C8.93746 23.6064 9.1027 23.7245 9.27129 23.838C9.43988 23.9514 9.61152 24.06 9.78629 24.1637C9.96098 24.2675 10.1385 24.3662 10.3188 24.46C10.4991 24.5537 10.6819 24.6423 10.8672 24.7256C11.0525 24.809 11.24 24.8871 11.4298 24.9598C11.6195 25.0326 11.8111 25.1 12.0046 25.1619C12.1982 25.2239 12.3933 25.2804 12.59 25.3312C12.7868 25.3822 12.9847 25.4275 13.184 25.4673C13.3833 25.5069 13.5836 25.541 13.7848 25.5694C13.986 25.5978 14.1879 25.6205 14.3904 25.6375C14.5929 25.6544 14.7957 25.6658 14.9988 25.6712C15.2019 25.6768 15.405 25.6766 15.6082 25.6706C15.8113 25.6647 16.014 25.653 16.2165 25.6355C16.4189 25.6181 16.6207 25.595 16.8219 25.5662C17.0231 25.5373 17.2232 25.5028 17.4225 25.4626C17.6217 25.4225 17.8196 25.3768 18.0161 25.3255C18.2128 25.2741 18.4078 25.2173 18.6012 25.1549C18.7946 25.0926 18.9861 25.0248 19.1757 24.9516C19.3652 24.8783 19.5525 24.7999 19.7377 24.7161C19.9229 24.6323 20.1054 24.5434 20.2855 24.4493C20.4657 24.3552 20.6429 24.2561 20.8175 24.1519C20.9919 24.0478 21.1633 23.9388 21.3317 23.8251C21.5 23.7112 21.665 23.5927 21.8267 23.4696C21.9883 23.3465 22.1464 23.2188 22.3007 23.0868L18.8187 20.391C15.8421 22.3566 10.8999 21.6266 9.21496 17.0212L5.67676 19.7732Z" fill="#34A853"/>
<path d="M9.2149 17.0212C8.76561 15.6172 8.76561 14.3254 9.2149 12.9214L5.6767 10.1694C4.38498 12.7529 3.99186 16.4034 5.6767 19.7732L9.2149 17.0212Z" fill="#FBBC02"/>
<path d="M9.21496 12.9213C10.4506 9.04615 15.7298 6.79967 19.268 10.1132L22.3569 7.08045C17.9763 2.86834 9.43965 3.03678 5.67676 10.1694L9.21496 12.9213Z" fill="#EA4335"/>
</svg>
