<svg xmlns="http://www.w3.org/2000/svg" version="1.1" xmlns:xlink="http://www.w3.org/1999/xlink" width="2000" height="218" viewBox="0 0 2000 218"><svg xml:space="preserve" width="2000" height="218" data-version="2" data-id="lg_IdaZet7mywiA6knFBv" viewBox="0 0 548 218" x="0" y="0"><rect width="100%" height="100%" fill="transparent"></rect><path fill="#0155ff" d="M5.6 188.02q9.59-14.38 15.93-26.79 6.35-12.4 12.27-28.76 20.02 11.56 46.53 18.05 26.51 6.48 49.35 6.48 23.41 0 32.99-4.09 9.59-4.08 9.59-8.88 0-17.2-52.45-17.2-57.53 0-83.47-11.99-25.95-11.98-25.95-38.77 0-38.07 31.59-56.12Q73.56 1.9 124.04 1.9q29.33 0 60.21 7.48 30.88 7.47 55.69 20.44-8.18 18.61-17.2 45.4-1.69 5.64-2.82 8.46-14.38-11.56-43.43-19.31-29.04-7.76-51.32-7.76-26.79 0-36.1 3.53-9.3 3.52-9.3 10.29T92.6 81.29q12.83 4.09 37.08 4.09 59.78 0 86.86 13.67 27.07 13.68 27.07 41.88 0 39.48-28.77 56.82-28.76 17.35-87.13 17.35-31.31 0-63.74-6.91-32.43-6.91-58.37-20.17"></path><rect width="238.01" height="213.2" x="-119" y="-106.6" fill="none" rx="0" ry="0" transform="translate(125.1 109)"></rect><path fill="#0155ff" d="M457.93 135.29 472.59 7.54h68.81l-37.79 204.74h-86.57L397.86 98.07l-22.28 114.21h-82.9L254.89 7.54h68.81l14.38 126.06L360.64 7.54h75.29Z"></path><rect width="286.51" height="204.74" x="-143.25" y="-102.37" fill="none" rx="0" ry="0" transform="translate(398.64 110.41)"></rect><path fill="#0155ff" d="M134.017 64.286c.146 24.678-19.74 44.807-44.426 44.953 24.686-.146 44.81 19.746 44.955 44.426-.145-24.68 19.746-44.808 44.423-44.955-24.677.147-44.806-19.746-44.952-44.424"></path></svg></svg>