<svg width="1467" height="584" viewBox="0 0 1467 584" fill="none" xmlns="http://www.w3.org/2000/svg">
<path d="M1238.46 365.462L1278.59 15.7812H1466.93L1363.49 576.201H1126.53L1074.03 263.582L1013.05 576.201H786.131L682.691 15.7812H871.04L910.401 360.836L972.153 15.7812H1178.24L1238.46 365.462Z" fill="#0155FF"/>
<path d="M0.328613 509.795C17.8286 483.554 32.3633 459.111 43.9326 436.465C55.5202 413.837 66.7155 387.596 77.5184 357.742C114.051 378.837 156.506 395.306 204.882 407.149C253.257 418.974 298.285 424.887 339.964 424.887C382.683 424.887 412.783 421.155 430.265 413.691C447.765 406.246 456.515 398.144 456.515 389.385C456.515 357.998 408.659 342.304 312.947 342.304C207.965 342.304 131.807 331.365 84.4709 309.485C37.1169 287.624 13.4399 252.25 13.4399 203.363C13.4399 133.892 42.2629 82.6877 99.9089 49.7497C157.537 16.8118 232.409 0.342773 324.526 0.342773C378.048 0.342773 432.984 7.16759 489.334 20.8172C545.684 34.4486 596.496 53.0982 641.77 76.7661C626.843 110.726 611.15 152.149 594.69 201.036C591.606 211.328 589.033 219.047 586.971 224.193C560.73 203.098 521.104 185.48 468.093 171.337C415.1 157.177 368.276 150.096 327.619 150.096C278.732 150.096 245.794 153.317 228.805 159.759C211.834 166.182 203.349 175.571 203.349 187.925C203.349 200.279 215.055 210.188 238.467 217.651C261.88 225.115 295.712 228.846 339.964 228.846C449.051 228.846 528.303 241.319 577.719 266.264C627.117 291.228 651.816 329.439 651.816 380.899C651.816 452.943 625.566 504.786 573.066 536.429C520.584 568.089 441.086 583.919 334.571 583.919C277.436 583.919 219.279 577.615 160.101 565.005C100.922 552.396 47.6644 533.992 0.328613 509.795Z" fill="#0155FF"/>
<path d="M351.604 170C352.004 237.549 297.571 292.647 230 293.047C297.571 292.647 352.655 347.096 353.052 414.651C352.655 347.096 407.101 292.001 474.648 291.599C407.101 292.001 352.004 237.549 351.604 170Z" fill="#0155FF"/>
</svg>
