<svg width="40" height="40" viewBox="0 0 40 40" fill="none" xmlns="http://www.w3.org/2000/svg">
<path d="M28.6944 32.2205C26.5582 29.8347 23.4544 28.3333 20 28.3333C16.5456 28.3333 13.4415 29.8347 11.3053 32.2205M20 35C11.7157 35 5 28.2843 5 20C5 11.7157 11.7157 5 20 5C28.2843 5 35 11.7157 35 20C35 28.2843 28.2843 35 20 35ZM20 23.3333C17.2386 23.3333 15 21.0948 15 18.3333C15 15.5719 17.2386 13.3333 20 13.3333C22.7614 13.3333 25 15.5719 25 18.3333C25 21.0948 22.7614 23.3333 20 23.3333Z" stroke="#0155FF" stroke-width="2" stroke-linecap="round" stroke-linejoin="round"/>
</svg>
