<svg width="48" height="48" viewBox="0 0 48 48" fill="none" xmlns="http://www.w3.org/2000/svg">
<path fill-rule="evenodd" clip-rule="evenodd" d="M24 8C15.1634 8 8 15.1634 8 24C8 28.1982 9.61612 32.0197 12.264 34.8755C12.364 34.5447 12.4969 34.2198 12.6704 33.9097C13.2583 32.8584 14.0001 31.8863 14.8802 31.0267C15.7634 30.1641 16.7599 29.4401 17.8347 28.8681C16.1977 27.3012 15.1743 25.1113 15.1743 22.6667C15.1743 17.836 19.1704 14 24 14C28.8296 14 32.8257 17.836 32.8257 22.6667C32.8257 25.1113 31.8023 27.3012 30.1653 28.8681C31.2401 29.4401 32.2366 30.1641 33.1198 31.0267C33.9999 31.8863 34.7417 32.8585 35.3296 33.9097C35.5031 34.2198 35.636 34.5447 35.736 34.8755C38.3839 32.0197 40 28.1982 40 24C40 15.1634 32.8366 8 24 8ZM31.8822 37.9273C31.9599 37.5279 31.9988 37.1529 32 36.8206C32.0019 36.2716 31.9013 35.9745 31.8386 35.8623C31.4375 35.1451 30.93 34.4793 30.3249 33.8883C28.6553 32.2576 26.381 31.3333 24 31.3333C21.619 31.3333 19.3447 32.2576 17.6751 33.8883C17.07 34.4793 16.5625 35.1451 16.1614 35.8623C16.0987 35.9745 15.9981 36.2716 16 36.8206C16.0012 37.1529 16.0401 37.5279 16.1178 37.9273C18.443 39.2466 21.131 40 24 40C26.869 40 29.557 39.2466 31.8822 37.9273ZM24 27.3333C26.7099 27.3333 28.8257 25.1998 28.8257 22.6667C28.8257 20.1335 26.7099 18 24 18C21.2901 18 19.1743 20.1335 19.1743 22.6667C19.1743 25.1998 21.2901 27.3333 24 27.3333ZM4 24C4 12.9543 12.9543 4 24 4C35.0457 4 44 12.9543 44 24C44 31.1145 40.2837 37.3597 34.696 40.9023C31.6014 42.8643 27.9303 44 24 44C20.0697 44 16.3986 42.8643 13.304 40.9023C7.71627 37.3597 4 31.1145 4 24Z" fill="#0155FF"/>
</svg>
